<svg xmlns="http://www.w3.org/2000/svg" xmlns:xlink="http://www.w3.org/1999/xlink" width="70" height="70" viewBox="0 0 70 70">
    <defs>
        <path id="b" d="M35 70c19.33 0 35-15.67 35-35 0-11.554-5.598-21.8-14.23-28.174A34.843 34.843 0 0 0 35 0C15.67 0 0 15.67 0 35s15.67 35 35 35z"/>
        <filter id="a" width="184.3%" height="184.3%" x="-42.1%" y="-26.4%" filterUnits="objectBoundingBox">
            <feOffset dy="11" in="SourceAlpha" result="shadowOffsetOuter1"/>
            <feGaussianBlur in="shadowOffsetOuter1" result="shadowBlurOuter1" stdDeviation="8"/>
            <feColorMatrix in="shadowBlurOuter1" values="0 0 0 0 0.243137255 0 0 0 0 0.890196078 0 0 0 0 0.745098039 0 0 0 0.38 0"/>
        </filter>
    </defs>
    <g fill="none" fill-rule="evenodd">
        <g>
            <!-- <use fill="#000" filter="url(#a)" xlink:href="#b"/> -->
            <use fill="#3AE8C1" xlink:href="#b"/>
        </g>
        <g fill="#FFF">
            <path d="M36.136 60.227A1.11 1.11 0 0 1 35 61.364a1.11 1.11 0 0 1-1.136-1.137h2.272zm-6.25-4.545h10.228v1.136c0 .683-.549 1.137-1.137 1.137h-7.954a1.126 1.126 0 0 1-1.137-1.137v-1.136zm0-2.273h10.228v-2.273H29.886v2.273zm23.296-22.727a1.137 1.137 0 0 0 0 2.273h4.545a1.136 1.136 0 0 0 0-2.273h-4.545zm-40.91 0a1.137 1.137 0 0 0 0 2.273h4.546a1.136 1.136 0 0 0 0-2.273h-4.545zm11.933 1.136c0 1.104.17 2.158.48 3.161.126.616.835 1.035 1.437.852.602-.183.965-.926.728-1.509a8.51 8.51 0 0 1-.373-2.504 8.505 8.505 0 0 1 7.511-8.47c.595-.046 1.094-.63 1.048-1.224-.02-.783-.684-1.074-1.297-1.03-5.365.626-9.534 5.203-9.534 10.724zm23.295-.657c0 4.65-1.663 7.3-3.48 9.873-1.632 2.309-3.475 4.595-3.835 7.83h-10.37c-.36-3.235-2.202-5.521-3.835-7.83-1.817-2.572-3.48-5.223-3.48-9.873 0-6.935 6.159-11.843 12.5-11.843s12.5 4.908 12.5 11.843zm-27.273 0c0 5.217 2.031 8.532 3.907 11.186 1.875 2.655 3.48 4.605 3.48 7.653v6.818c0 1.93 1.599 3.41 3.409 3.41h.568c0 1.869 1.54 3.408 3.409 3.408 1.869 0 3.41-1.54 3.41-3.409h.567c1.81 0 3.41-1.48 3.41-3.408V50c0-3.049 1.604-5 3.48-7.654s3.906-5.97 3.906-11.186c0-8.271-7.257-14.116-14.773-14.116S20.227 22.89 20.227 31.161zm30.043-16.21l-3.214 3.213a1.125 1.125 0 0 0 0 1.598 1.126 1.126 0 0 0 1.598 0l3.214-3.214a1.124 1.124 0 0 0 0-1.597 1.125 1.125 0 0 0-.8-.338c-.29 0-.576.115-.798.338zm-32.138 0a1.124 1.124 0 0 0 0 1.597l3.214 3.214a1.126 1.126 0 0 0 1.598 0 1.126 1.126 0 0 0 0-1.598l-3.214-3.213a1.127 1.127 0 0 0-.799-.338c-.29 0-.577.115-.799.338zm15.732-5.86v4.545a1.136 1.136 0 0 0 2.272 0V9.091a1.137 1.137 0 0 0-2.272 0z"/>
            <path d="M28.214 37.58a.984.984 0 0 0-1.26.947.985.985 0 0 0 .978.988c.54 0 .978-.444.978-.988a.988.988 0 0 0-.696-.947z"/>
        </g>
    </g>
</svg>
