<svg xmlns="http://www.w3.org/2000/svg" xmlns:xlink="http://www.w3.org/1999/xlink" width="70" height="70" viewBox="0 0 70 70">
    <defs>
        <path id="b" d="M35 70c19.33 0 35-15.67 35-35 0-11.554-5.598-21.8-14.23-28.174A34.843 34.843 0 0 0 35 0C15.67 0 0 15.67 0 35s15.67 35 35 35z"/>
        <filter id="a" width="184.3%" height="184.3%" x="-42.1%" y="-26.4%" filterUnits="objectBoundingBox">
            <feOffset dy="11" in="SourceAlpha" result="shadowOffsetOuter1"/>
            <feGaussianBlur in="shadowOffsetOuter1" result="shadowBlurOuter1" stdDeviation="8"/>
            <feColorMatrix in="shadowBlurOuter1" values="0 0 0 0 0.968627451 0 0 0 0 0.749019608 0 0 0 0 0.109803922 0 0 0 0.38 0"/>
        </filter>
    </defs>
    <g fill="none" fill-rule="evenodd">
        <g>
            <!-- <use fill="#000" filter="url(#a)" xlink:href="#b"/> -->
            <use fill="#F7BF1C" xlink:href="#b"/>
        </g>
        <g fill="#FFF">
            <path d="M17.182 12.727c-2.342.003-4.24 1.85-4.243 4.13v12.391h-.848c-1.406 0-2.546 1.11-2.546 2.478v21.478c0 1.368 1.14 2.478 2.546 2.478h32.242c.469 0 .849-.37.849-.826-.003-2.28-1.9-4.128-4.243-4.13h-2.545v-4.957h10.182v7.435c0 1.368 1.14 2.478 2.545 2.478h6.788c1.406 0 2.546-1.11 2.546-2.478V36.683c0-1.369-1.14-2.478-2.546-2.478h-.848V16.858c-.003-2.28-1.901-4.128-4.243-4.13H17.182zm-2.546 4.13c0-1.368 1.14-2.478 2.546-2.478h35.636c1.406 0 2.546 1.11 2.546 2.479v17.347H51.12c-1.406 0-2.545 1.109-2.545 2.478v.826H29.909v-5.783c0-.898-.443-2.478-2.545-2.478H14.636v-12.39zm-3.394 14.87c0-.457.38-.827.849-.827h15.273c.468 0 .848.37.848.826v19h-16.97v-19zm39.03 4.956c0-.456.38-.826.85-.826h6.787c.469 0 .849.37.849.826v14.043h-8.485V36.683zM29.91 44.117h18.667v-4.956H29.909v4.956zm3.394 6.609h3.394v-4.957h-3.394v4.957zm-3.394 0h1.697v-4.957H29.91v4.957zm20.364 2.478v-.826h8.485v.826c0 .456-.38.826-.849.826h-6.788a.838.838 0 0 1-.848-.826zm-20.364 0v-.826h11.03c1.079 0 2.04.662 2.4 1.652H29.754c.1-.265.153-.544.156-.826zm-18.667 0v-.826h16.97v.826c0 .456-.38.826-.848.826H12.09a.838.838 0 0 1-.849-.826z"/>
            <path d="M19.591 39.303l-3.6 3.504a.81.81 0 0 0-.02 1.168.865.865 0 0 0 1.2.02.628.628 0 0 0 .02-.02l3.6-3.504a.81.81 0 0 0 0-1.168.857.857 0 0 0-.6-.242.857.857 0 0 0-.6.242M54.26 41.374l-2.4 2.336a.81.81 0 0 0-.02 1.168.865.865 0 0 0 1.199.02l.02-.02 2.4-2.336a.81.81 0 0 0-.02-1.168.858.858 0 0 0-.59-.232.858.858 0 0 0-.59.232M35.008 40.813a.837.837 0 0 0-.844.83.838.838 0 0 0 .853.822c.469 0 .849-.37.849-.826a.838.838 0 0 0-.849-.826h-.009zM43.659 22.624l-8.4 8.178a.81.81 0 0 0-.02 1.168.865.865 0 0 0 1.199.02.766.766 0 0 0 .02-.02l8.4-8.178a.81.81 0 0 0-.02-1.168.859.859 0 0 0-.59-.232.858.858 0 0 0-.589.232M46.076 20.41a.837.837 0 0 0-.845.83.838.838 0 0 0 .853.822c.469 0 .849-.37.849-.826a.838.838 0 0 0-.849-.826h-.008zM21.728 37.591a.837.837 0 0 0-.844.83.838.838 0 0 0 .852.822c.469 0 .849-.37.849-.826a.838.838 0 0 0-.849-.826h-.008zM56.287 39.574a.837.837 0 0 0-.844.83.838.838 0 0 0 .853.822c.468 0 .848-.37.848-.826a.838.838 0 0 0-.848-.826h-.009z"/>
        </g>
    </g>
</svg>
