<svg xmlns="http://www.w3.org/2000/svg" xmlns:xlink="http://www.w3.org/1999/xlink" width="70" height="70" viewBox="0 0 70 70">
    <defs>
        <path id="b" d="M35 70c19.33 0 35-15.67 35-35 0-11.554-5.598-21.8-14.23-28.174A34.843 34.843 0 0 0 35 0C15.67 0 0 15.67 0 35s15.67 35 35 35z"/>
        <filter id="a" width="184.3%" height="184.3%" x="-42.1%" y="-26.4%" filterUnits="objectBoundingBox">
            <feOffset dy="11" in="SourceAlpha" result="shadowOffsetOuter1"/>
            <feGaussianBlur in="shadowOffsetOuter1" result="shadowBlurOuter1" stdDeviation="8"/>
            <feColorMatrix in="shadowBlurOuter1" values="0 0 0 0 0.537254902 0 0 0 0 0.866666667 0 0 0 0 0.419607843 0 0 0 0.38 0"/>
        </filter>
    </defs>
    <g fill="none" fill-rule="evenodd">
        <g>
            <!-- <use fill="#000" filter="url(#a)" xlink:href="#b"/> -->
            <use fill="#8ADD6C" xlink:href="#b"/>
        </g>
        <g fill="#FFF">
            <path d="M37.208 33.593a.938.938 0 0 0 0-1.328.942.942 0 0 0-1.33 0 .938.938 0 0 0 0 1.328.944.944 0 0 0 1.33 0M41.035 24.95a2.824 2.824 0 0 1 3.99 0 2.811 2.811 0 0 1 0 3.984 2.83 2.83 0 0 1-3.99 0 2.816 2.816 0 0 1 0-3.983m5.32 5.31a4.685 4.685 0 0 0 0-6.638 4.707 4.707 0 0 0-6.65 0 4.694 4.694 0 0 0 0 6.638 4.716 4.716 0 0 0 6.65 0"/>
            <path d="M24.833 25.739c1.539-.822 3.22-.741 5.009.236a37.943 37.943 0 0 0-3.952 6.429c-.014-.009-.183-.221-.498-.292-.129-.03-2.618-.563-5.143.776.585-2.822 2.282-5.92 4.584-7.15m9.551-2.116c2.786-2.78 6.383-4.994 10.692-6.587l7.88 7.866c-1.595 4.3-3.813 7.89-6.6 10.67a34.117 34.117 0 0 1-2.712 2.43 36.148 36.148 0 0 1-7.498 4.638l-8.844-8.826a36.049 36.049 0 0 1 4.648-7.483 34.107 34.107 0 0 1 2.434-2.708m19.25-.701l-6.575-6.562a42.36 42.36 0 0 1 8.254-1.675 42.131 42.131 0 0 1-1.68 8.237m-9.397 22.183c-1.233 2.297-4.335 3.991-7.163 4.574.902-1.693 1.1-3.848.771-5.155-.077-.304-.275-.457-.286-.474A38.06 38.06 0 0 0 44 40.104c.978 1.785 1.06 3.464.236 5m-13.545-.497c-.272.07-.587-.032-.822-.266l-4.271-4.263c-.235-.235-.337-.55-.268-.82a30.44 30.44 0 0 1 1.175-3.586l7.778 7.763c-1.216.478-2.42.872-3.592 1.172m-4.288 2.913c-1.293 1.29-4.327 1.971-6.245 2.25.279-1.915.961-4.942 2.254-6.233.725-.723 1.564-1.271 2.408-1.58l3.166 3.16c-.31.842-.859 1.68-1.583 2.403m-7.676-11.746a.94.94 0 0 0 1.025-.203c1.89-1.886 4.22-1.768 4.98-1.668l.33.329a32.974 32.974 0 0 0-1.554 4.56 2.652 2.652 0 0 0 .114 1.63 8.907 8.907 0 0 0-2.54 1.787c-2.42 2.417-2.913 8.306-2.932 8.555a.938.938 0 0 0 1.011 1.01c.25-.02 6.151-.51 8.572-2.927a8.893 8.893 0 0 0 1.79-2.534 2.662 2.662 0 0 0 1.635.113 33.119 33.119 0 0 0 4.568-1.55l.33.328c.1.76.217 3.085-1.671 4.97a.937.937 0 0 0 .665 1.603c3.722 0 8.927-2.213 10.844-5.788.832-1.552 1.4-4.008-.408-7.073a35.81 35.81 0 0 0 2.2-2.017c3.106-3.1 5.544-7.112 7.247-11.926 2.128-6.007 2.331-11.061 2.339-11.273a.938.938 0 0 0-.974-.972c-.213.008-5.276.21-11.295 2.334-4.823 1.7-8.844 4.133-11.95 7.233a35.749 35.749 0 0 0-2.02 2.196c-3.071-1.804-5.532-1.238-7.088-.407-3.581 1.913-5.799 7.107-5.799 10.823 0 .38.23.722.581.867"/>
            <path stroke="#FFF" stroke-linecap="round" stroke-linejoin="round" stroke-width="2.047" d="M13.931 56.203l2.675-2.542M12.727 48.98l2.675-2.543M22.358 56.203l2.675-2.542"/>
        </g>
    </g>
</svg>
