<svg xmlns="http://www.w3.org/2000/svg" xmlns:xlink="http://www.w3.org/1999/xlink" width="70" height="70"><defs><path id="a" d="M35 70c19.33 0 35-15.67 35-35 0-11.554-5.598-21.8-14.23-28.174A34.843 34.843 0 0035 0C15.67 0 0 15.67 0 35s15.67 35 35 35z"/></defs><g fill="none" fill-rule="evenodd"><use fill="#BE55D4" fill-opacity=".837" xlink:href="#a"/><g fill="#FFF"><path d="M59.393 34.586l-8.636 10.116a4.996 4.996 0 01-3.389 1.735l-1.228.102a5.001 5.001 0 01-.415.017H32.911c-.965 0-1.94.056-2.897.167l-3.06.355-6.772-6.502a13.064 13.064 0 012.538-2.772c2.56-2.073 5.47-2.68 8.648-1.804 1.651.455 3.39.686 5.17.686h8.423c.56 0 1.103.23 1.492.632.284.293.464.653.538 1.03-.001.096.01.19.035.283.028.494-.12.998-.45 1.408l-.034.04c-.394.49-.983.772-1.614.772h-7.332c-.585 0-1.059.471-1.059 1.054 0 .582.474 1.054 1.059 1.054h7.332a4.173 4.173 0 003.266-1.561l.032-.04c.613-.76.916-1.679.919-2.596l6.784-6.684c.425-.424.99-.67 1.59-.695l.387-.015a1.883 1.883 0 011.877 1.319 2 2 0 01-.39 1.9m2.412-2.525a4.006 4.006 0 00-3.986-2.8l-.386.015a4.497 4.497 0 00-2.997 1.306l-5.97 5.883a4.18 4.18 0 00-.489-.61 4.216 4.216 0 00-3.016-1.278h-8.422c-1.59 0-3.139-.205-4.607-.61-3.822-1.053-7.47-.292-10.548 2.2a15.213 15.213 0 00-2.805 3.011 3.775 3.775 0 00-2.22-.67 3.77 3.77 0 00-2.665 1.155L8.251 45.29a1.05 1.05 0 00.019 1.481l4.378 4.3a1.062 1.062 0 001.497-.01 1.051 1.051 0 00-.01-1.49L10.5 46.002l4.718-4.877c.31-.321.728-.502 1.176-.51.452-.008.87.16 1.192.47l8.418 8.134c.32.31.501.726.507 1.172a1.65 1.65 0 01-.474 1.185l-4.636 4.737-1.193-1.132a1.062 1.062 0 00-1.497.037 1.05 1.05 0 00.037 1.49l1.95 1.85a1.059 1.059 0 001.489-.028l5.366-5.483a3.74 3.74 0 001.075-2.685 3.76 3.76 0 00-.26-1.327l1.89-.219a23.267 23.267 0 012.652-.153h12.814c.197 0 .395-.008.59-.025l1.229-.102a7.134 7.134 0 004.826-2.47l8.635-10.116a4.087 4.087 0 00.8-3.889"/><path d="M16.235 52.161l-.055.013a1.054 1.054 0 10.484 2.052l.055-.013a1.054 1.054 0 10-.484-2.052m14.811-35.955a9.08 9.08 0 012.282-2.626 9.018 9.018 0 015.605-1.926c5.01 0 9.085 4.058 9.085 9.047 0 4.988-4.076 9.047-9.085 9.047-5.01 0-9.086-4.059-9.086-9.047 0-1.58.415-3.134 1.199-4.495m7.887 15.65c6.177 0 11.202-5.004 11.202-11.155S45.11 9.545 38.933 9.545a11.12 11.12 0 00-6.912 2.376 11.22 11.22 0 00-2.811 3.236 11.118 11.118 0 00-1.48 5.544c0 6.15 5.026 11.154 11.203 11.154"/><path d="M39.871 24.308c-.426.253-.98.342-1.357.342-.714 0-1.34-.837-1.34-1.792 0-.582-.473-1.054-1.058-1.054-.584 0-1.058.472-1.058 1.054 0 1.826 1.117 3.362 2.62 3.784.034.552.493.989 1.055.989.578 0 1.046-.46 1.058-1.034 1.528-.395 2.848-1.528 2.848-3.509 0-2.375-2.436-3.67-3.686-3.67-.016 0-1.57-.138-1.57-1.128 0-1.52 1.554-1.562 1.57-1.562.294 0 .652.174.934.455.135.135.15.15.15.717a1.058 1.058 0 102.117-.004c0-.673 0-1.437-.77-2.204a3.725 3.725 0 00-1.595-.952 1.056 1.056 0 00-1.056-.993c-.584 0-1.058.473-1.058 1.055v.069c-1.157.428-2.409 1.45-2.409 3.42 0 2.414 2.521 3.23 3.679 3.234.318.026 1.576.58 1.576 1.563 0 .578-.2.954-.65 1.22"/></g></g></svg>