<svg xmlns="http://www.w3.org/2000/svg" xmlns:xlink="http://www.w3.org/1999/xlink" width="70" height="70"><defs><path id="a" d="M35 70c19.33 0 35-15.67 35-35 0-11.554-5.598-21.8-14.23-28.174A34.843 34.843 0 0035 0C15.67 0 0 15.67 0 35s15.67 35 35 35z"/></defs><g fill="none" fill-rule="evenodd"><use fill="#FC9A7F" xlink:href="#a"/><g fill="#FFF"><path d="M55.277 28.28c-1.263-4.37-4.935-7.65-9.469-8.435-2.128-5.236-7.278-8.709-13.022-8.709-7.392 0-13.469 5.692-13.998 12.884-5.999.147-10.833 5.026-10.833 11.003 0 6.07 4.984 11.007 11.11 11.007h.889c.001-.067.006-.135.016-.204.093-.65.144-1.295.066-1.95v-.01h-.971c-4.922 0-8.927-3.967-8.927-8.843 0-4.876 4.005-8.843 8.927-8.843.21 0 .437.01.69.03.312.025.618-.083.843-.297.225-.214.348-.512.336-.82v-.052c0-6.474 5.317-11.742 11.852-11.742 5.04 0 9.539 3.166 11.196 7.878.137.391.487.67.902.719 4.199.49 7.601 3.574 8.467 7.673.108.512.57.875 1.098.86l.088-.003c.044-.001.087-.003.131-.003 3.741 0 6.785 3.015 6.785 6.722 0 3.706-3.044 6.721-6.785 6.721h-6.463c.058.137.09.286.087.44a6.42 6.42 0 01-.254 1.724h6.63c4.945 0 8.968-3.986 8.968-8.885 0-4.697-3.697-8.554-8.36-8.865"/><path d="M33.837 31.025c-7.087 0-12.853 5.713-12.853 12.734s5.766 12.733 12.853 12.733S46.69 50.78 46.69 43.759c0-7.021-5.766-12.734-12.853-12.734m0 27.73c-8.346 0-15.136-6.727-15.136-14.996s6.79-14.996 15.136-14.996c8.347 0 15.137 6.727 15.137 14.996s-6.79 14.995-15.137 14.995"/><path d="M39.645 41.504l-6.998 6.932a.65.65 0 01-.461.187.65.65 0 01-.462-.187l-3.691-3.657a.65.65 0 010-.914.65.65 0 01.461-.187.65.65 0 01.462.187l2.46 2.438a1.093 1.093 0 001.539 0l5.767-5.714a.65.65 0 01.461-.187.65.65 0 01.462.187.638.638 0 01.189.457.636.636 0 01-.19.458m1.539-2.438a2.821 2.821 0 00-2-.819c-.756 0-1.466.291-1.999.819l-4.998 4.952-1.692-1.677a2.822 2.822 0 00-2-.818c-.757 0-1.467.29-2 .818a2.786 2.786 0 000 3.962l3.692 3.657a2.821 2.821 0 002 .818 2.82 2.82 0 001.999-.818l6.998-6.933a2.769 2.769 0 00.826-1.98c0-.75-.293-1.454-.826-1.981M24.116 21.704l.113.007a.968.968 0 01.857.96l-.007.112a.97.97 0 01-.963.854l-.114-.006a.968.968 0 01-.861-.956l.005-.112a.97.97 0 01.96-.859h.01zm6.614-5.606a.976.976 0 011.222.609.94.94 0 01-.625 1.188 7.707 7.707 0 00-3.894 2.784.978.978 0 01-.792.397.984.984 0 01-.56-.174.928.928 0 01-.23-1.317 9.658 9.658 0 014.879-3.487z"/></g></g></svg>