<svg xmlns="http://www.w3.org/2000/svg" xmlns:xlink="http://www.w3.org/1999/xlink" width="70" height="70"><defs><path id="a" d="M35 70c19.33 0 35-15.67 35-35 0-11.554-5.598-21.8-14.23-28.174A34.843 34.843 0 0035 0C15.67 0 0 15.67 0 35s15.67 35 35 35z"/></defs><g fill="none" fill-rule="evenodd"><use fill="#49D6F1" xlink:href="#a"/><g fill="#FFF"><path d="M42.147 42.797a.966.966 0 00-.96-.966.964.964 0 00-.961.966.964.964 0 00.96.966c.531 0 .96-.434.96-.966"/><path d="M27.309 36.006l6.31 22.222-19.402-22.222h13.092zm8.405-10.818l5.886 8.887H29.828l5.886-8.887zm-11.889-.775H33.92l-5.768 8.706-4.327-8.706zm19.45 8.706l-5.767-8.706h10.094l-4.327 8.706zm13.93.956H44.947l4.43-8.916 7.826 8.916zM22.05 25.159l4.43 8.916H14.224l7.826-8.916zm18.344 20.468a.959.959 0 00-1.186.664l-3.494 12.286-6.408-22.57h12.81l-.796 2.758a.96.96 0 101.845.539l.95-3.298H57.21l-19.399 22.22 3.243-11.404a.968.968 0 00-.66-1.195zM60.053 34.4L49.887 22.82l-.005-.005c-.223-.216-.377-.334-.726-.334H22.272c-.33 0-.506.123-.726.334l-.005.005L11.376 34.4a.975.975 0 00-.002 1.278L34.993 62.73a.078.078 0 01.01.011c.015.018.033.035.05.052l.016.016c.024.02.047.04.072.058l.013.01.063.042.025.014.061.033.02.009a1.08 1.08 0 00.098.037.942.942 0 00.078.022l.026.006.07.01a.814.814 0 00.308-.01l.026-.006a.916.916 0 00.088-.024l.087-.034.02-.011c.021-.01.042-.02.062-.032l.024-.014a.761.761 0 00.063-.041l.014-.011a.809.809 0 00.07-.058c.006-.005.01-.011.017-.016a.813.813 0 00.05-.052l.011-.01 23.619-27.053a.978.978 0 00-.001-1.278zM15.024 12.164a1.009 1.009 0 000 1.393l5.374 5.566a.926.926 0 001.344 0 1.008 1.008 0 000-1.392l-5.373-5.567a.928.928 0 00-1.345 0m20.27-2.871a1.001 1.001 0 00-.98.985l-.11 7.76a.933.933 0 00.95.956 1 1 0 00.978-.984l.113-7.76a.935.935 0 00-.951-.957m21.332 2.871a1.009 1.009 0 010 1.393l-5.374 5.566a.926.926 0 01-1.344 0 1.008 1.008 0 010-1.392l5.373-5.567a.928.928 0 011.345 0"/></g></g></svg>